# xmcd
#
# Track frame offsets: 
#        150
#        11525
#        18770
#        28742
#        42521
#        55774
#        72572
#        88331
#        97259
#        106890
#        120042
#        130809
#        142188
#        151223
#        159669
#
# Disc length: 2305 seconds
#
# Revision: 0
# Processed by: cddbd v1.5.2PL0 Copyright (c) Steve Scherf et al.
# Submitted via: ExactAudioCopy v1.3
#
DISCID=c708ff0f
DTITLE=Nico Brina - Boogie Me Up
DYEAR=2019
DGENRE=Boogie Woogie, Piano Blues
TTITLE0=Boogie Me Up
TTITLE1=Good Rockin' Tonight
TTITLE2=Dancing Mosquito
TTITLE3=Her Elvis
TTITLE4=Lazybones
TTITLE5=Barrelhouse Mice Race
TTITLE6=Clap Hands
TTITLE7=Jellyfish Babe
TTITLE8=C Jam Boom Boom
TTITLE9=Al Capone
TTITLE10=Boogie Woogie
TTITLE11=Tomorrow Can Come
TTITLE12=Why Did You Kiss Me Last Night
TTITLE13=Calypso Boogie
TTITLE14=Headturner
EXTD=
EXTT0=
EXTT1=
EXTT2=
EXTT3=
EXTT4=
EXTT5=
EXTT6=
EXTT7=
EXTT8=
EXTT9=
EXTT10=
EXTT11=
EXTT12=
EXTT13=
EXTT14=
PLAYORDER=
